REM DIRINDEX 1\2,1\3,1\4
REM DIRNAME folder01,folder02,folder03,folder04
TITLE ""
FILE "DISC2Track21.mp3" MP3
  TRACK 01 AUDIO
    TITLE "0:"
    INDEX 01 00:00:00
  TRACK 02 AUDIO
    TITLE "4:cjc105_2974"
    INDEX 01 00:00:15
  TRACK 03 AUDIO
    TITLE "0:"
    INDEX 01 00:02:73
  TRACK 04 AUDIO
    TITLE "2:cjc105_2975"
    INDEX 01 00:03:45
  TRACK 05 AUDIO
    TITLE "3:cjc105_2976"
    INDEX 01 00:04:64
  TRACK 06 AUDIO
    TITLE "0:"
    INDEX 01 00:05:56
  TRACK 07 AUDIO
    TITLE "2:cjc105_2977"
    INDEX 01 00:05:65
  TRACK 08 AUDIO
    TITLE "3:cjc105_2978"
    INDEX 01 00:07:39
  TRACK 09 AUDIO
    TITLE "0:"
    INDEX 01 00:08:68
  TRACK 10 AUDIO
    TITLE "2:cjc105_2979"
    INDEX 01 00:09:04
  TRACK 11 AUDIO
    TITLE "3:cjc105_2980"
    INDEX 01 00:09:67
  TRACK 12 AUDIO
    TITLE "0:"
    INDEX 01 00:11:17
  TRACK 13 AUDIO
    TITLE "2:cjc105_2981"
    INDEX 01 00:11:31
  TRACK 14 AUDIO
    TITLE "3:cjc105_2982"
    INDEX 01 00:12:48
  TRACK 15 AUDIO
    TITLE "0:"
    INDEX 01 00:13:49
  TRACK 16 AUDIO
    TITLE "2:cjc105_2983"
    INDEX 01 00:13:59
  TRACK 17 AUDIO
    TITLE "3:cjc105_2984"
    INDEX 01 00:14:58
  TRACK 18 AUDIO
    TITLE "0:"
    INDEX 01 00:15:64
  TRACK 19 AUDIO
    TITLE "2:cjc105_2985"
    INDEX 01 00:16:02
  TRACK 20 AUDIO
    TITLE "3:cjc105_2986"
    INDEX 01 00:17:06
  TRACK 21 AUDIO
    TITLE "0:"
    INDEX 01 00:18:17
  TRACK 22 AUDIO
    TITLE "2:cjc105_2987"
    INDEX 01 00:18:35
  TRACK 23 AUDIO
    TITLE "3:cjc105_2988"
    INDEX 01 00:19:46
  TRACK 24 AUDIO
    TITLE "0:"
    INDEX 01 00:20:36
  TRACK 25 AUDIO
    TITLE "2:cjc105_2989"
    INDEX 01 00:20:43
  TRACK 26 AUDIO
    TITLE "3:cjc105_2990"
    INDEX 01 00:21:53
  TRACK 27 AUDIO
    TITLE "0:"
    INDEX 01 00:22:58
  TRACK 28 AUDIO
    TITLE "2:cjc105_2991"
    INDEX 01 00:22:74
  TRACK 29 AUDIO
    TITLE "3:cjc105_2992"
    INDEX 01 00:23:69
  TRACK 30 AUDIO
    TITLE "0:"
    INDEX 01 00:24:65
  TRACK 31 AUDIO
    TITLE "2:cjc105_2993"
    INDEX 01 00:25:05
  TRACK 32 AUDIO
    TITLE "3:cjc105_2994"
    INDEX 01 00:26:15
  TRACK 33 AUDIO
    TITLE "0:"
    INDEX 01 00:27:14
  TRACK 34 AUDIO
    TITLE "2:cjc105_2995"
    INDEX 01 00:27:28
  TRACK 35 AUDIO
    TITLE "3:cjc105_2996"
    INDEX 01 00:28:39
  TRACK 36 AUDIO
    TITLE "0:"
    INDEX 01 00:29:56
  TRACK 37 AUDIO
    TITLE "2:cjc105_2997"
    INDEX 01 00:29:70
  TRACK 38 AUDIO
    TITLE "3:cjc105_2998"
    INDEX 01 00:31:26
  TRACK 39 AUDIO
    TITLE "0:"
    INDEX 01 00:32:66
  TRACK 40 AUDIO
    TITLE "2:cjc105_2999"
    INDEX 01 00:33:05
  TRACK 41 AUDIO
    TITLE "3:cjc105_3000"
    INDEX 01 00:34:57
  TRACK 42 AUDIO
    TITLE "0:"
    INDEX 01 00:36:09
  TRACK 43 AUDIO
    TITLE "2:cjc105_3001"
    INDEX 01 00:36:21
  TRACK 44 AUDIO
    TITLE "3:cjc105_3002"
    INDEX 01 00:37:22
  TRACK 45 AUDIO
    TITLE "0:"
    INDEX 01 00:38:26
  TRACK 46 AUDIO
    TITLE "2:cjc105_3003"
    INDEX 01 00:38:37
  TRACK 47 AUDIO
    TITLE "3:cjc105_3004"
    INDEX 01 00:39:52
  TRACK 48 AUDIO
    TITLE "0:"
    INDEX 01 00:41:00
  TRACK 49 AUDIO
    TITLE "2:cjc105_3005"
    INDEX 01 00:41:20
  TRACK 50 AUDIO
    TITLE "3:cjc105_3006"
    INDEX 01 00:42:33
  TRACK 51 AUDIO
    TITLE "0:"
    INDEX 01 00:43:35
  TRACK 52 AUDIO
    TITLE "2:cjc105_3007"
    INDEX 01 00:43:50
  TRACK 53 AUDIO
    TITLE "3:cjc105_3008"
    INDEX 01 00:45:00
  TRACK 54 AUDIO
    TITLE "0:"
    INDEX 01 00:46:02
  TRACK 55 AUDIO
    TITLE "2:cjc105_3009"
    INDEX 01 00:46:17
  TRACK 56 AUDIO
    TITLE "3:cjc105_3010"
    INDEX 01 00:48:02
  TRACK 57 AUDIO
    TITLE "0:"
    INDEX 01 00:49:14
  TRACK 58 AUDIO
    TITLE "2:cjc105_3011"
    INDEX 01 00:49:23
  TRACK 59 AUDIO
    TITLE "3:cjc105_3012"
    INDEX 01 00:51:03
  TRACK 60 AUDIO
    TITLE "0:"
    INDEX 01 00:52:22
  TRACK 61 AUDIO
    TITLE "2:cjc105_3013"
    INDEX 01 00:52:37
  TRACK 62 AUDIO
    TITLE "3:cjc105_3014"
    INDEX 01 00:53:49
  TRACK 63 AUDIO
    TITLE "0:"
    INDEX 01 00:54:48
  TRACK 64 AUDIO
    TITLE "2:cjc105_3015"
    INDEX 01 00:54:62
  TRACK 65 AUDIO
    TITLE "3:cjc105_3016"
    INDEX 01 00:56:02
  TRACK 66 AUDIO
    TITLE "0:"
    INDEX 01 00:57:19
  TRACK 67 AUDIO
    TITLE "2:cjc105_3017"
    INDEX 01 00:57:33
  TRACK 68 AUDIO
    TITLE "3:cjc105_3018"
    INDEX 01 00:58:52
  TRACK 69 AUDIO
    TITLE "0:"
    INDEX 01 00:59:53
  TRACK 70 AUDIO
    TITLE "2:cjc105_3019"
    INDEX 01 00:59:67
  TRACK 71 AUDIO
    TITLE "3:cjc105_3020"
    INDEX 01 01:01:09
  TRACK 72 AUDIO
    TITLE "0:"
    INDEX 01 01:02:22
  TRACK 73 AUDIO
    TITLE "2:cjc105_3021"
    INDEX 01 01:02:36
  TRACK 74 AUDIO
    TITLE "3:cjc105_3022"
    INDEX 01 01:03:69
  TRACK 75 AUDIO
    TITLE "0:"
    INDEX 01 01:05:21
  TRACK 76 AUDIO
    TITLE "2:cjc105_3023"
    INDEX 01 01:05:38
  TRACK 77 AUDIO
    TITLE "3:cjc105_3024"
    INDEX 01 01:06:53
  TRACK 78 AUDIO
    TITLE "0:"
    INDEX 01 01:08:17
  TRACK 79 AUDIO
    TITLE "2:cjc105_3025"
    INDEX 01 01:08:33
  TRACK 80 AUDIO
    TITLE "3:cjc105_3026"
    INDEX 01 01:09:24
  TRACK 81 AUDIO
    TITLE "0:"
    INDEX 01 01:10:35
  TRACK 82 AUDIO
    TITLE "2:cjc105_3027"
    INDEX 01 01:10:47
  TRACK 83 AUDIO
    TITLE "3:cjc105_3028"
    INDEX 01 01:12:17
  TRACK 84 AUDIO
    TITLE "0:"
    INDEX 01 01:13:65
  TRACK 85 AUDIO
    TITLE "2:cjc105_3029"
    INDEX 01 01:14:00
  TRACK 86 AUDIO
    TITLE "3:cjc105_3030"
    INDEX 01 01:15:11
  TRACK 87 AUDIO
    TITLE "0:"
    INDEX 01 01:16:20
  TRACK 88 AUDIO
    TITLE "2:cjc105_3031"
    INDEX 01 01:16:30
  TRACK 89 AUDIO
    TITLE "3:cjc105_3032"
    INDEX 01 01:17:45
  TRACK 90 AUDIO
    TITLE "0:"
    INDEX 01 01:18:56
  TRACK 91 AUDIO
    TITLE "2:cjc105_3033"
    INDEX 01 01:18:70
  TRACK 92 AUDIO
    TITLE "3:cjc105_3034"
    INDEX 01 01:20:12
  TRACK 93 AUDIO
    TITLE "0:"
    INDEX 01 01:21:27
  TRACK 94 AUDIO
    TITLE "2:cjc105_3035"
    INDEX 01 01:21:43
  TRACK 95 AUDIO
    TITLE "3:cjc105_3036"
    INDEX 01 01:22:74
  TRACK 96 AUDIO
    TITLE "0:"
    INDEX 01 01:24:57
  TRACK 97 AUDIO
    TITLE "2:cjc105_3037"
    INDEX 01 01:24:73
  TRACK 98 AUDIO
    TITLE "3:cjc105_3038"
    INDEX 01 01:26:05
  TRACK 99 AUDIO
    TITLE "0:"
    INDEX 01 01:27:51
  TRACK 100 AUDIO
    TITLE "2:cjc105_3039"
    INDEX 01 01:27:65
  TRACK 101 AUDIO
    TITLE "3:cjc105_3040"
    INDEX 01 01:29:15
  TRACK 102 AUDIO
    TITLE "0:"
    INDEX 01 01:30:24
  TRACK 103 AUDIO
    TITLE "2:cjc105_3041"
    INDEX 01 01:30:36
  TRACK 104 AUDIO
    TITLE "3:cjc105_3042"
    INDEX 01 01:31:24
  TRACK 105 AUDIO
    TITLE "0:"
    INDEX 01 01:32:43
  TRACK 106 AUDIO
    TITLE "2:cjc105_3043"
    INDEX 01 01:32:59
  TRACK 107 AUDIO
    TITLE "3:cjc105_3044"
    INDEX 01 01:34:46
  TRACK 108 AUDIO
    TITLE "0:"
    INDEX 01 01:36:29
  TRACK 109 AUDIO
    TITLE "2:cjc105_3045"
    INDEX 01 01:36:43
  TRACK 110 AUDIO
    TITLE "3:cjc105_3046"
    INDEX 01 01:37:48
  TRACK 111 AUDIO
    TITLE "0:"
    INDEX 01 01:39:23
  TRACK 112 AUDIO
    TITLE "2:cjc105_3047"
    INDEX 01 01:39:37
  TRACK 113 AUDIO
    TITLE "3:cjc105_3048"
    INDEX 01 01:40:72
  TRACK 114 AUDIO
    TITLE "0:"
    INDEX 01 01:42:08
  TRACK 115 AUDIO
    TITLE "2:cjc105_3049"
    INDEX 01 01:42:22
  TRACK 116 AUDIO
    TITLE "3:cjc105_3050"
    INDEX 01 01:43:45
  TRACK 117 AUDIO
    TITLE "0:"
    INDEX 01 01:44:62
  TRACK 118 AUDIO
    TITLE "2:cjc105_3051"
    INDEX 01 01:44:72
  TRACK 119 AUDIO
    TITLE "3:cjc105_3052"
    INDEX 01 01:46:39
  TRACK 120 AUDIO
    TITLE "0:"
    INDEX 01 01:47:74
  TRACK 121 AUDIO
    TITLE "2:cjc105_3053"
    INDEX 01 01:48:20
  TRACK 122 AUDIO
    TITLE "3:cjc105_3054"
    INDEX 01 01:49:33
  TRACK 123 AUDIO
    TITLE "0:"
    INDEX 01 01:50:58
